#N canvas 641 173 1365 751 12;
#X obj 121 262 osc~ 440;
#X obj 261 625 dac~;
#X floatatom 118 170 5 0 0 0 - - - 0;
#X floatatom 281 245 5 0 0 0 - - - 0;
#X obj 281 275 osc~;
#X obj 263 573 *~ 0.5;
#X obj 278 313 *~ 0.75;
#X obj 282 209 * 2;
#X floatatom 413 302 5 0 0 0 - - - 0;
#X obj 413 331 osc~;
#X floatatom 553 386 5 0 0 0 - - - 0;
#X obj 553 415 osc~;
#X floatatom 708 433 5 0 0 0 - - - 0;
#X obj 708 462 osc~;
#X obj 124 30 loadbang;
#X msg 129 92 440;
#X obj 412 269 * 3;
#X obj 556 351 * 4;
#X obj 711 398 * 5;
#X obj 418 368 *~ 0.5;
#X obj 558 452 *~ 0.25;
#X obj 713 499 *~ 0.125;
#X obj 1005 87 noise~;
#X obj 1005 213 *~ 0 \, 5;
#X obj 1005 265 dac~;
#X obj 1005 161 lop~;
#X floatatom 1075 102 5 0 0 0 - - - 0;
#X obj 819 179 hip~;
#X obj 683 198 bp~;
#X floatatom 858 140 5 0 0 0 - - - 0;
#X obj 798 115 noise~;
#X msg 1088 50 1000;
#X obj 1088 19 bng 19 250 50 0 empty empty empty 0 -10 0 12 #fcfcfc #000000 #000000;
#X msg 859 97 4000;
#X obj 859 49 bng 19 250 50 0 empty empty empty 0 -10 0 12 #fcfcfc #000000 #000000;
#X obj 819 233 *~ 0 \, 5;
#X obj 819 285 dac~;
#X floatatom 730 112 5 0 0 0 - - - 0;
#X msg 730 88 1;
#X obj 730 62 bng 19 250 50 0 empty empty empty 0 -10 0 12 #fcfcfc #000000 #000000;
#X obj 656 46 bng 19 250 50 0 empty empty empty 0 -10 0 12 #fcfcfc #000000 #000000;
#X floatatom 656 94 5 0 0 0 - - - 0;
#X msg 656 70 800;
#X obj 639 139 noise~;
#X obj 683 244 *~ 0 \, 5;
#X obj 683 296 dac~;
#X connect 0 0 5 0;
#X connect 2 0 0 0;
#X connect 2 0 7 0;
#X connect 2 0 16 0;
#X connect 2 0 17 0;
#X connect 2 0 18 0;
#X connect 3 0 4 0;
#X connect 4 0 6 0;
#X connect 5 0 1 0;
#X connect 6 0 5 0;
#X connect 7 0 3 0;
#X connect 8 0 9 0;
#X connect 9 0 19 0;
#X connect 10 0 11 0;
#X connect 11 0 20 0;
#X connect 12 0 13 0;
#X connect 13 0 21 0;
#X connect 14 0 15 0;
#X connect 15 0 2 0;
#X connect 16 0 8 0;
#X connect 17 0 10 0;
#X connect 18 0 12 0;
#X connect 19 0 5 0;
#X connect 20 0 5 0;
#X connect 21 0 5 0;
#X connect 22 0 25 0;
#X connect 23 0 24 0;
#X connect 23 0 24 1;
#X connect 25 0 23 0;
#X connect 26 0 25 1;
#X connect 27 0 35 0;
#X connect 28 0 44 0;
#X connect 29 0 27 1;
#X connect 30 0 27 0;
#X connect 31 0 26 0;
#X connect 32 0 31 0;
#X connect 33 0 29 0;
#X connect 34 0 33 0;
#X connect 35 0 36 0;
#X connect 35 0 36 1;
#X connect 37 0 28 2;
#X connect 38 0 37 0;
#X connect 39 0 38 0;
#X connect 40 0 42 0;
#X connect 41 0 28 1;
#X connect 42 0 41 0;
#X connect 43 0 28 0;
#X connect 44 0 45 0;
#X connect 44 0 45 1;
