#N canvas 729 348 1365 751 12;
#X obj 121 262 osc~ 440;
#X obj 261 625 dac~;
#X floatatom 118 170 5 0 0 0 - - - 0;
#X floatatom 281 245 5 0 0 0 - - - 0;
#X obj 281 275 osc~;
#X obj 263 573 *~ 0.5;
#X obj 278 313 *~ 0.75;
#X obj 282 209 * 2;
#X floatatom 413 302 5 0 0 0 - - - 0;
#X obj 413 331 osc~;
#X floatatom 553 386 5 0 0 0 - - - 0;
#X obj 553 415 osc~;
#X floatatom 708 433 5 0 0 0 - - - 0;
#X obj 708 462 osc~;
#X obj 124 30 loadbang;
#X msg 129 92 440;
#X obj 412 269 * 3;
#X obj 556 351 * 4;
#X obj 711 398 * 5;
#X obj 418 368 *~ 0.5;
#X obj 558 452 *~ 0.25;
#X obj 713 499 *~ 0.125;
#X connect 0 0 5 0;
#X connect 2 0 0 0;
#X connect 2 0 7 0;
#X connect 2 0 16 0;
#X connect 2 0 17 0;
#X connect 2 0 18 0;
#X connect 3 0 4 0;
#X connect 4 0 6 0;
#X connect 5 0 1 0;
#X connect 6 0 5 0;
#X connect 7 0 3 0;
#X connect 8 0 9 0;
#X connect 9 0 19 0;
#X connect 10 0 11 0;
#X connect 11 0 20 0;
#X connect 12 0 13 0;
#X connect 13 0 21 0;
#X connect 14 0 15 0;
#X connect 15 0 2 0;
#X connect 16 0 8 0;
#X connect 17 0 10 0;
#X connect 18 0 12 0;
#X connect 19 0 5 0;
#X connect 20 0 5 0;
#X connect 21 0 5 0;
