#N canvas 845 43 1030 788 12;
#X obj 55 193 noise~;
#X obj 55 306 *~, f 4;
#X obj 178 196 line;
#X obj 178 49 bng 19 250 50 0 empty empty empty 0 -10 0 12 #fcfcfc #000000 #000000;
#X floatatom 178 234 5 0 0 0 - - - 0;
#X msg 178 85 1 1000;
#X obj 278 81 delay 1000;
#X obj 278 119 bng 19 250 50 0 empty empty empty 0 -10 0 12 #fcfcfc #000000 #000000;
#X obj 55 246 *~ 0.5;
#X msg 278 159 0.5 1500;
#X obj 428 205 delay;
#X connect 0 0 8 0;
#X connect 2 0 4 0;
#X connect 3 0 5 0;
#X connect 3 0 6 0;
#X connect 4 0 1 1;
#X connect 5 0 2 0;
#X connect 6 0 7 0;
#X connect 7 0 9 0;
#X connect 8 0 1 0;
#X connect 9 0 2 1;
