#N canvas 617 112 1147 728 12;
#X obj 388 70 noise~;
#X obj 388 196 *~ 0 \, 5;
#X obj 388 248 dac~;
#X obj 388 144 lop~;
#X floatatom 458 85 5 0 0 0 - - - 0;
#X obj 202 162 hip~;
#X obj 66 181 bp~;
#X floatatom 241 123 5 0 0 0 - - - 0;
#X obj 181 98 noise~;
#X msg 471 33 1000;
#X obj 471 2 bng 19 250 50 0 empty empty empty 0 -10 0 12 #fcfcfc #000000 #000000;
#X msg 242 80 4000;
#X obj 242 32 bng 19 250 50 0 empty empty empty 0 -10 0 12 #fcfcfc #000000 #000000;
#X obj 202 216 *~ 0 \, 5;
#X obj 202 268 dac~;
#X floatatom 113 95 5 0 0 0 - - - 0;
#X msg 113 71 1;
#X obj 113 45 bng 19 250 50 0 empty empty empty 0 -10 0 12 #fcfcfc #000000 #000000;
#X obj 39 29 bng 19 250 50 0 empty empty empty 0 -10 0 12 #fcfcfc #000000 #000000;
#X floatatom 39 77 5 0 0 0 - - - 0;
#X msg 39 53 800;
#X obj 22 122 noise~;
#X obj 66 227 *~ 0 \, 5;
#X obj 66 279 dac~;
#X connect 0 0 3 0;
#X connect 1 0 2 0;
#X connect 1 0 2 1;
#X connect 3 0 1 0;
#X connect 4 0 3 1;
#X connect 5 0 13 0;
#X connect 6 0 22 0;
#X connect 7 0 5 1;
#X connect 8 0 5 0;
#X connect 9 0 4 0;
#X connect 10 0 9 0;
#X connect 11 0 7 0;
#X connect 12 0 11 0;
#X connect 13 0 14 0;
#X connect 13 0 14 1;
#X connect 15 0 6 2;
#X connect 16 0 15 0;
#X connect 17 0 16 0;
#X connect 18 0 20 0;
#X connect 19 0 6 1;
#X connect 20 0 19 0;
#X connect 21 0 6 0;
#X connect 22 0 23 0;
#X connect 22 0 23 1;
